<svg xmlns="http://www.w3.org/2000/svg" xmlns:xlink="http://www.w3.org/1999/xlink" viewBox="0 0 500 500"><defs><linearGradient id="a" x1="245.94654" y1="284.43101" x2="198.63455" y2="42.77801" gradientTransform="translate(0 -36)" gradientUnits="userSpaceOnUse"><stop offset="0" stop-color="#3c3c3c"/><stop offset="1" stop-color="#515151"/></linearGradient><linearGradient id="b" x1="256.99952" y1="280.15219" x2="480.2515" y2="363.0532" gradientTransform="translate(0 -36)" gradientUnits="userSpaceOnUse"><stop offset="0" stop-color="#282828"/><stop offset="1" stop-color="#515151"/></linearGradient><linearGradient id="c" x1="245.84599" y1="285.7733" x2="14.599" y2="209.41827" gradientTransform="translate(0 -36)" gradientUnits="userSpaceOnUse"><stop offset="0" stop-color="#262626"/><stop offset="0.994" stop-color="#282828"/></linearGradient><linearGradient id="d" x1="252.1328" y1="278.8088" x2="495.60573" y2="233.74738" gradientTransform="translate(0 -36)" gradientUnits="userSpaceOnUse"><stop offset="0" stop-color="#262626"/><stop offset="1" stop-color="#424242"/></linearGradient><linearGradient id="e" x1="245.89198" y1="295.64464" x2="5.93698" y2="337.81867" gradientTransform="translate(0 -36)" gradientUnits="userSpaceOnUse"><stop offset="0" stop-color="#3c3c3c"/><stop offset="0.994" stop-color="#505050"/></linearGradient><linearGradient id="f" x1="230.68679" y1="268.93047" x2="341.30579" y2="37.50448" gradientTransform="translate(0 -36)" gradientUnits="userSpaceOnUse"><stop offset="0" stop-color="#333"/><stop offset="1" stop-color="#3e3e3e"/></linearGradient><linearGradient id="g" x1="259.40643" y1="296.64918" x2="55.00041" y2="459.59119" gradientTransform="translate(0 -36)" gradientUnits="userSpaceOnUse"><stop offset="0" stop-color="#3e3e3e"/><stop offset="0.994" stop-color="#424242"/></linearGradient><linearGradient id="h" x1="231.5874" y1="287.51032" x2="429.4494" y2="124.56531" gradientTransform="translate(0 -36)" gradientUnits="userSpaceOnUse"><stop offset="0" stop-color="#3a3a3a"/><stop offset="1" stop-color="#505050"/></linearGradient><linearGradient id="i" x1="256.44927" y1="284.4779" x2="300.12122" y2="528.31486" gradientTransform="translate(0 -36)" gradientUnits="userSpaceOnUse"><stop offset="0" stop-color="#2d2d2d"/><stop offset="0.994" stop-color="#2f2f2f"/></linearGradient><linearGradient id="j" x1="271.62562" y1="295.51203" x2="167.55562" y2="523.302" gradientTransform="translate(0 -36)" gradientUnits="userSpaceOnUse"><stop offset="0" stop-color="#262626"/><stop offset="0.994" stop-color="#1a1a1a"/></linearGradient><linearGradient id="k" x1="259.23495" y1="276.78682" x2="414.93991" y2="471.05381" gradientTransform="translate(0 -36)" gradientUnits="userSpaceOnUse"><stop offset="0" stop-color="#424242"/><stop offset="0.994" stop-color="#373737"/></linearGradient><linearGradient id="l" x1="252.6201" y1="281.18128" x2="80.92617" y2="102.21133" gradientTransform="translate(0 -36)" gradientUnits="userSpaceOnUse"><stop offset="0" stop-color="#444"/><stop offset="0.994" stop-color="#2d2d2d"/></linearGradient><radialGradient id="m" cx="250" cy="285.83921" r="249.61271" gradientTransform="translate(0 -36.25363)" gradientUnits="userSpaceOnUse"><stop offset="0" stop-color="#1a1a1a"/><stop offset="1" stop-color="#1a1a1a" stop-opacity="0"/></radialGradient></defs><path d="M128.2,31.6C158.7,15.1,191.1,4.5,225.8,1A155.07554,155.07554,0,0,1,254.7.5c6.3,3.9,9.2,10.4,12.2,16.6,18.8,38.1,28.7,78.3,26.6,121-1.8,36.1-12,69.8-31.4,100.5-2.5,3.9-6,6.9-9,10.4a6.13635,6.13635,0,0,1-2.3,1.1,4.28639,4.28639,0,0,1-2.3-1.2c-2.1-9.2-1.6-18.5-2.1-28-1.9-36.3-8.5-71.4-28.9-102.6-16.7-25.6-39.1-45.5-63.4-63.5-6.7-4.9-13.7-9.5-20.4-14.3-3-2.2-6.7-4.1-5.5-8.9Z" style="fill:url(#a)"/><path d="M499.9,254.5c-.5,44.6-12.9,86-35.6,124.3-6.5,4.8-13.9,3.5-21.1,3-41.6-3.4-80.8-14.5-116.4-36.9a207.45774,207.45774,0,0,1-71.7-76c-2.6-4.9-6.2-10.2-4.2-16.6a5.76419,5.76419,0,0,1,2.5-1.1c9.9,2.5,17.6,8.8,26.4,13.4,59.9,30.3,120.5,28,181.8,4.2,9.5-3.7,18.5-8.6,27.7-13,3.4-1.6,6.7-3.8,10.6-1.3Z" style="fill:url(#b)"/><path d="M0,245.9c.9-45,12.3-86.9,36.1-125.2a24.30965,24.30965,0,0,1,12.5-2.3c29.8,2.3,59.2,6.5,87.2,18.2,24.3,10.2,46.5,23.3,66.2,41.1a207.582,207.582,0,0,1,38.2,45.5c4.9,7.9,9.3,16.4,8.5,26.3a4.29535,4.29535,0,0,1-2.5.7c-20.8-12.3-41.9-24-65.7-30C131,208,83.1,213.1,36.2,232.5c-8.6,3.5-17.1,7.8-25.5,11.8C7.4,245.9,3.9,248,0,245.9Z" style="fill:url(#c)"/><path d="M499.9,254.5c-28.4,14.8-57.6,27.7-89.7,32.6-56.9,8.8-109.7-.7-157.1-34.9-.2-3.2,2.1-3.2,4.2-3.7,6.2-1.4,12.3-1.1,18.5-.9,51.3.4,94.4-19.2,133.2-51.7,19.9-16.6,35.4-36.7,49.5-58.2,2.5-3.9,4.6-9,10.7-8.3,21.2,39.1,31.9,80.7,30.7,125.1Z" style="fill:url(#d)"/><path d="M0,245.9c25.9-13.8,52.5-25.7,81.6-31.2,56.5-10.8,109.9-3.5,158.7,28.6,2.3,1.6,5.5,2.6,6.3,5.8-5.6,4.8-12.7,3.5-19,3.4-36.1-.9-69.6,8.6-100.9,26.4-35.8,20.5-63.4,49.2-85.4,83.8-2.3,3.5-3.7,8.8-9.7,8.1C9.4,332.1-.5,290.3,0,245.9Z" style="fill:url(#e)"/><path d="M251.4,248.9c12.7-18.9,23.4-38.6,29.9-60.5,15.3-52,10.7-102.6-9.9-152.3C266.3,23.9,260.3,12.3,254.7.3,299.3.8,341,11.9,378.9,35.9c4.1,7.4,2.3,15.3,1.8,22.9-4.1,52.5-20.6,100.2-55.5,140.7-15.3,17.8-33.6,31.6-53.5,43.4-6.4,3.7-12.8,7.4-20.3,6Z" style="fill:url(#f)"/><path d="M31.4,370.9c9.3-13,17.8-27,28.2-39.1,36.8-43.6,81.9-73,139.5-80.9,15.9-2.1,31.7-.5,47.6-1.6h1.9c.4-.7.9-.9,1.6-.2v.7a2.36239,2.36239,0,0,1-.4,2.3,10.21839,10.21839,0,0,1-1.8,1.8c-22.5,12.2-43.5,26.3-61.5,45-32.6,33.9-50.4,74.4-57.6,120.1-1.9,12.5-3.7,25-3.3,37.7,0,3.2,0,6.5-3.5,8.3q-58.65-34.5-90.7-94.1Z" style="fill:url(#g)"/><path d="M249.8,250.6c0-.4.2-.7.2-1.1a12.75307,12.75307,0,0,0,1.2-.7c30.6-12.7,56-32.4,76.6-58.2,28.2-35.1,43-75.6,48.1-120.3,1.2-11.5.5-23.1,2.6-34.6,38.8,22.7,68.5,54.5,90.4,93.6-9,12.3-17.4,25.2-27.1,37-35.2,43.6-79.8,72.3-135.3,82.5-14.3,2.6-28.9,1.9-43.5,1.9-3.3,0-7-.9-10.2,1.2a3.4034,3.4034,0,0,1-1.4.2,2.83009,2.83009,0,0,1-1.8-.9c.4.1.2-.2.2-.6Z" style="fill:url(#h)"/><path d="M248.6,251.3a4.72766,4.72766,0,0,0,1.2-.7v.7c2.1,5.6,2.1,11.3,2.1,17.3-.5,39,9.2,75.5,29.4,109,20.4,33.7,47.6,60.5,81,81.3,3.9,2.5,9.3,3.9,9.2,10.1-39.1,21.9-81.2,31.7-125.8,31-4.1-2.1-6.3-5.5-8.5-9.5-16.2-31.4-27.1-64.2-29.8-99.6-3.5-45,5.6-86.6,28.2-125.4,3.3-5.9,8-9.9,13-14.2Z" style="fill:url(#i)"/><path d="M248.6,251.3c-16.6,24.3-28.9,50.3-34.5,79.3-8.8,44.6-3.5,87.8,13.2,129.6,5.5,13.4,12.2,26.4,18.3,39.5-40.2.9-77.1-10.6-112.4-28.7-3.7-1.9-7.4-4.2-11.1-6.2.2-41.4,7.4-81.3,26.4-118.5,21.1-41.3,52.3-72.5,94.2-92.7a38.02018,38.02018,0,0,1,5.9-2.3Z" style="fill:url(#j)"/><path d="M371.3,468.9c-18.3-12.2-36.8-24-52.8-39.5-34.9-34-59-74.1-67.1-122.9a194.05531,194.05531,0,0,1-1.6-55.4c1.1-.4,1.6.2,1.9,1.1,11.4,30,31.2,53.8,55.5,73.9,41,34,89.3,49.2,141.8,52,5.1.4,10.2.4,15.3.5-4.4,6.9-8.8,13.8-13,20.6a289.38011,289.38011,0,0,1-63.4,60.1c-5.5,3.5-11.1,6.5-16.6,9.6Z" style="fill:url(#k)"/><path d="M250.1,248.9l-.7.2-.7-.2c-4.9-17.5-15.1-32.1-26.4-45.7-41.6-49.5-95.6-74.9-159.6-80.4-8.8-.7-17.6-1.6-26.4-2.5,22.7-38.1,53.5-67.5,92.1-89,10.4,9.9,23.3,16.4,34.3,25,30.5,23.5,56.7,50.1,71.9,86.2,10.6,25.2,14.1,51.7,15.3,78.6.4,9.6.1,18.6.2,27.8Z" style="fill:url(#l)"/><ellipse cx="250" cy="249.89999" rx="249.60001" ry="249.89999" style="isolation:isolate;opacity:0.2;fill:url(#m)"/><path d="M206.5,356.8H182.9c-7.8,0-14.4-1.2-22-7.2-7.2-5.6-11.3-13.2-12.5-23.3-.9-6.7-.2-13.6.4-20.3.7-7.9,1.6-17.8-1.4-21-2.5-2.6-3.3-2.8-4.1-3.2a23.79913,23.79913,0,0,0-5.1-.9h-5.6V252.2h5.6a21.81383,21.81383,0,0,0,5.1-.9c.7-.2,1.6-.5,4.1-3.2,3-3.2,2.1-13,1.4-21-.5-6.7-1.2-13.6-.4-20.3,1.2-10.1,5.3-17.6,12.5-23.3,7.8-6,14.4-7.2,22-7.2h23.6V205H182.9c-3,0-3,0-4.4,1.2-.5.5-1.2,1.1-1.8,4.2-.5,3.5,0,8.6.5,14.1,1.2,13.2,2.6,29.4-7.8,41.8,10.4,12.3,9,28.6,7.8,41.8-.5,5.5-.9,10.6-.5,14.1.4,3.2,1.1,3.7,1.8,4.2,1.6,1.2,1.6,1.2,4.4,1.2h23.6v29.2Zm110.7,0H293.6V328h23.6c3,0,3,0,4.4-1.2.5-.5,1.2-1.1,1.8-4.2.5-3.5,0-8.6-.5-14.1-1.2-13.2-2.6-29.4,7.8-41.8-10.4-12.3-9-28.6-7.8-41.8.5-5.5.9-10.6.5-14.1-.4-3.2-1.1-3.7-1.8-4.2-1.6-1.2-1.6-1.2-4.4-1.2H293.6V176.7h23.6c7.8,0,14.4,1.2,22,7.2,7.2,5.6,11.3,13.2,12.5,23.3.9,6.7.2,13.6-.4,20.3-.7,7.9-1.6,17.8,1.4,21,2.5,2.6,3.3,2.8,4.1,3.2a23.79892,23.79892,0,0,0,5.1.9h5.6v28.7H362a21.81381,21.81381,0,0,0-5.1.9c-.7.2-1.6.5-4.1,3.2-3,3.2-2.1,13-1.4,21,.5,6.7,1.2,13.6.4,20.3-1.2,10.1-5.3,17.6-12.5,23.3-7.8,5.6-14.5,6.8-22.1,6.8ZM264.4,201.1H235.7V157.9l.2-.9c1.9-17.1,7-25,15.1-33.1L279.9,95l20.3,20.3-28.9,29.1c-3.7,3.7-5.6,5.6-6.9,15.5Z" style="fill:#7a8"/></svg>